<?xml version="1.0" encoding="utf-8"?>
<!-- Generator: Adobe Illustrator 26.5.3, SVG Export Plug-In . SVG Version: 6.00 Build 0)  -->
<svg version="1.1" id="Ebene_1" xmlns="http://www.w3.org/2000/svg" xmlns:xlink="http://www.w3.org/1999/xlink" x="0px" y="0px"
	 viewBox="0 0 121 71.7" style="enable-background:new 0 0 121 71.7;" xml:space="preserve">
<style type="text/css">
	.st0{fill:url(#SVGID_1_);}
	.st1{fill:#FFFFFF;}
</style>
<g>
	<g>
		<linearGradient id="SVGID_1_" gradientUnits="userSpaceOnUse" x1="60.2636" y1="34.526" x2="60.2636" y2="10.6366">
			<stop  offset="0" style="stop-color:#FF00FF"/>
			<stop  offset="1" style="stop-color:#F7931E"/>
		</linearGradient>
		<path class="st0" d="M82.4,27.9l0,6.6L60.4,17.3L38.2,34.5l0-6.4l22.4-17.5L82.4,27.9z"/>
	</g>
	<path class="st1" d="M23.6,42h4.8v18.5h-4.8v-2.2c-1.4,1.8-3.5,2.7-6,2.7c-2.5,0-4.6-0.9-6.4-2.8c-1.8-1.9-2.7-4.2-2.7-7
		s0.9-5.1,2.7-7c1.8-1.9,3.9-2.8,6.4-2.8c2.6,0,4.6,0.9,6,2.7V42z M14.8,55c1,1,2.2,1.5,3.7,1.5c1.5,0,2.7-0.5,3.7-1.5
		c1-1,1.5-2.2,1.5-3.8s-0.5-2.8-1.5-3.8c-1-1-2.2-1.5-3.7-1.5c-1.5,0-2.7,0.5-3.7,1.5c-1,1-1.4,2.2-1.4,3.8S13.8,54,14.8,55z"/>
	<path class="st1" d="M37.5,45.2c0.4-1.2,1.2-2.1,2.2-2.7c1-0.6,2.2-0.9,3.4-0.9v5.3c-1.5-0.2-2.8,0.1-3.9,0.9
		c-1.2,0.8-1.7,2-1.7,3.8v8.9h-4.8V42h4.8V45.2z"/>
	<path class="st1" d="M59.3,42h4.8v18.5h-4.8v-2.2c-1.4,1.8-3.5,2.7-6,2.7c-2.5,0-4.6-0.9-6.4-2.8c-1.8-1.9-2.7-4.2-2.7-7
		s0.9-5.1,2.7-7c1.8-1.9,3.9-2.8,6.4-2.8c2.6,0,4.6,0.9,6,2.7V42z M50.5,55c1,1,2.2,1.5,3.7,1.5c1.5,0,2.7-0.5,3.7-1.5
		c1-1,1.5-2.2,1.5-3.8s-0.5-2.8-1.5-3.8c-1-1-2.2-1.5-3.7-1.5c-1.5,0-2.7,0.5-3.7,1.5c-1,1-1.4,2.2-1.4,3.8S49.5,54,50.5,55z"/>
	<polygon class="st1" points="73.2,42 68.5,42 68.5,60.5 73.2,56.8 	"/>
	<path class="st1" d="M85.6,53.9c0.7,0.3,1,0.7,1,1.2c0,1.1-0.9,1.6-2.6,1.6c-0.7,0-1.3-0.2-1.8-0.4l-3.8,3c1.4,1.1,3.3,1.8,5.6,1.8
		c2.1,0,3.9-0.5,5.3-1.5c1.4-1,2.1-2.5,2.1-4.4c0-1.3-0.3-2.3-1-3.2c-0.3-0.4-0.7-0.8-1.2-1.1l-3.9,3C85.5,53.9,85.5,53.9,85.6,53.9
		z"/>
	<path class="st1" d="M82.9,48.4c-0.7-0.3-1-0.7-1-1.2c0-0.5,0.2-0.8,0.6-1.1c0.4-0.3,0.9-0.4,1.5-0.4c0.9,0,1.7,0.3,2.2,0.9
		l3.6-2.8c-0.5-0.5-1.1-1-1.7-1.3c-1.2-0.7-2.6-1-4.1-1c-2,0-3.7,0.5-5,1.6c-1.3,1.1-2,2.5-2,4.3c0,1.2,0.3,2.2,1,3
		c0.5,0.6,1.1,1,1.7,1.4l3.9-3C83.3,48.6,83.1,48.5,82.9,48.4z"/>
	<path class="st1" d="M98.2,49.5h9.5c-0.3-1.3-0.8-2.2-1.7-2.8c-0.9-0.6-1.8-0.9-2.9-0.9c-1.3,0-2.4,0.3-3.2,1
		C99.1,47.4,98.5,48.3,98.2,49.5z M98.3,53.2c0.6,2.3,2.4,3.5,5.2,3.5c1.8,0,3.2-0.6,4.2-1.9l3.9,2.2c-1.8,2.6-4.5,4-8.1,4
		c-3.1,0-5.5-0.9-7.4-2.8c-1.9-1.9-2.8-4.2-2.8-7c0-2.8,0.9-5.1,2.7-7c1.8-1.9,4.2-2.8,7-2.8c2.7,0,5,0.9,6.7,2.8s2.7,4.2,2.7,7
		c0,0.6-0.1,1.3-0.2,2H98.3z"/>
</g>
</svg>
